<svg width="216" height="245" viewBox="0 0 216 245" fill="none" xmlns="http://www.w3.org/2000/svg">
<path d="M215.241 0L195.632 220.474L107.489 245L19.5882 220.509L0 0H215.241Z" fill="#264DE4"/>
<path d="M178.845 206.435L195.602 18.03H107.621V226.254L178.845 206.435Z" fill="#2965F1"/>
<path d="M44.9056 99.8135L47.3207 126.858H107.621V99.8135H44.9056Z" fill="#EBEBEB"/>
<path d="M107.621 45.0747H107.527H40.053L42.5025 72.1195H107.621V45.0747Z" fill="#EBEBEB"/>
<path d="M107.621 198.189V170.051L107.502 170.083L77.4926 161.95L75.5741 140.38H60.9917H48.5247L52.2998 182.844L107.496 198.223L107.621 198.189Z" fill="#EBEBEB"/>
<path d="M140.708 126.858L137.581 161.932L107.527 170.074V198.21L162.768 182.844L163.173 178.275L169.505 107.076L170.163 99.8135L175.027 45.0747H107.527V72.1195H145.497L143.045 99.8135H107.527V126.858H140.708Z" fill="white"/>
</svg>
