<svg width="336" height="144" viewBox="0 0 336 144" fill="none" xmlns="http://www.w3.org/2000/svg">
<path d="M336 125.307C336 135.614 327.644 143.97 317.337 143.97H18.6633C8.35584 143.97 0 135.614 0 125.307V18.6633C0 8.35584 8.35584 0 18.6633 0H317.337C327.644 0 336 8.35584 336 18.6633V125.307Z" fill="#092E20"/>
<path d="M57.953 22.6086H73.8648V96.2595C65.7023 97.8092 59.7094 98.4291 53.2005 98.4291C33.776 98.4291 23.6505 89.648 23.6505 72.805C23.6505 56.5839 34.3965 46.0451 51.0309 46.0451C53.6138 46.0451 55.5768 46.2524 57.9537 46.871L57.953 22.6086ZM57.953 59.682C56.0933 59.0628 54.5436 58.8562 52.5806 58.8562C44.5214 58.8562 39.8716 63.816 39.8716 72.4937C39.8716 80.9676 44.3148 85.6167 52.4773 85.6167C54.233 85.6167 55.6801 85.5134 57.953 85.2048V59.682Z" fill="white"/>
<path d="M99.1777 47.1802V84.0676C99.1777 96.7753 98.2478 102.871 95.4583 108.141C92.8748 113.204 89.4647 116.406 82.4393 119.919L67.664 112.893C74.69 109.587 78.0994 106.696 80.269 102.251C82.5426 97.7058 83.2665 92.4348 83.2665 78.5899V47.1802H99.1777ZM83.2665 22.6932H99.1777V39.019H83.2665V22.6932Z" fill="white"/>
<path d="M108.789 50.7969C115.815 47.4902 122.531 46.0444 129.867 46.0444C138.029 46.0444 143.402 48.214 145.779 52.4506C147.121 54.8262 147.534 57.9256 147.534 64.5398V96.8787C140.404 97.9132 131.416 98.6357 124.804 98.6357C111.475 98.6357 105.482 93.9852 105.482 83.6544C105.482 72.4937 113.438 67.3286 132.966 65.6743V62.1609C132.966 59.2687 131.52 58.2363 127.49 58.2363C121.601 58.2363 114.988 59.8886 108.788 63.0921V50.7969H108.789ZM133.689 76.1111C123.15 77.1455 119.741 78.7979 119.741 82.9305C119.741 86.03 121.704 87.477 126.044 87.477C128.42 87.477 130.589 87.2697 133.689 86.7545V76.1111Z" fill="white"/>
<path d="M155.284 49.6611C164.686 47.1802 172.435 46.0444 180.288 46.0444C188.45 46.0444 194.34 47.9028 197.854 51.5208C201.16 54.9288 202.193 58.6482 202.193 66.6061V97.8092H186.281V67.2253C186.281 61.1297 184.215 58.8555 178.533 58.8555C176.363 58.8555 174.4 59.0628 171.196 59.9926V97.8085H155.285L155.284 49.6611Z" fill="white"/>
<path d="M208.378 106.488C213.958 109.38 219.537 110.724 225.426 110.724C235.861 110.724 240.304 106.488 240.304 96.3621C240.304 96.2594 240.304 96.1555 240.304 96.0508C237.205 97.6012 234.105 98.2217 229.973 98.2217C216.024 98.2217 207.137 89.0254 207.137 74.458C207.137 56.3759 220.26 46.1477 243.507 46.1477C250.327 46.1477 256.63 46.8702 264.275 48.4186L258.827 59.8979C254.591 59.0707 258.488 59.7866 255.286 59.4767V61.1297L255.492 67.8445L255.595 76.5243C255.698 78.6926 255.698 80.8635 255.802 83.0325C255.802 84.9954 255.802 85.9266 255.802 87.373C255.802 101.012 254.666 107.418 251.256 112.686C246.297 120.436 237.721 124.259 225.529 124.259C219.33 124.259 213.958 123.329 208.377 121.159L208.378 106.488ZM239.995 58.9594C239.789 58.9594 239.583 58.9594 239.479 58.9594H238.342C235.243 58.8561 231.627 59.682 229.146 61.2317C225.324 63.4026 223.36 67.3279 223.36 72.9083C223.36 80.8648 227.287 85.41 234.313 85.41C236.482 85.41 238.239 84.9968 240.305 84.3769V83.2404V78.9012C240.305 77.0415 240.202 74.9739 240.202 72.8049L240.1 65.4689L239.996 60.1999V58.9594H239.995Z" fill="white"/>
<path d="M288.977 45.8385C304.888 45.8385 314.601 55.8614 314.601 72.0812C314.601 88.7162 304.476 99.1517 288.357 99.1517C272.445 99.1517 262.629 89.1294 262.629 73.0123C262.63 56.2726 272.756 45.8385 288.977 45.8385ZM288.666 86.3399C294.763 86.3399 298.379 81.2769 298.379 72.4938C298.379 63.816 294.866 58.6489 288.771 58.6489C282.468 58.6489 278.85 63.7133 278.85 72.4938C278.851 81.2775 282.468 86.3399 288.666 86.3399Z" fill="white"/>
</svg>
