<svg width="70" height="69" viewBox="0 0 70 69" fill="none" xmlns="http://www.w3.org/2000/svg">
<g clip-path="url(#clip0_45_10)">
<path fill-rule="evenodd" clip-rule="evenodd" d="M34.8957 0C15.5993 0 0 15.8125 0 35.3747C0 51.0118 9.995 64.2483 23.8607 68.9332C25.5943 69.2853 26.2293 68.172 26.2293 67.2355C26.2293 66.4154 26.1721 63.6043 26.1721 60.6754C16.465 62.7842 14.4436 56.4585 14.4436 56.4585C12.8836 52.3588 10.5721 51.3051 10.5721 51.3051C7.395 49.1381 10.8036 49.1381 10.8036 49.1381C14.3279 49.3724 16.1771 52.7692 16.1771 52.7692C19.2964 58.1569 24.3229 56.6346 26.345 55.6974C26.6336 53.4132 27.5586 51.8319 28.5407 50.9536C20.7986 50.1335 12.6529 47.0882 12.6529 33.5002C12.6529 29.6348 14.0386 26.4723 16.2343 24.0127C15.8879 23.1344 14.6743 19.5026 16.5814 14.6417C16.5814 14.6417 19.5279 13.7044 26.1714 18.2728C29.0158 17.4984 31.9491 17.1045 34.8957 17.1012C37.8421 17.1012 40.8457 17.5116 43.6193 18.2728C50.2636 13.7044 53.21 14.6417 53.21 14.6417C55.1171 19.5026 53.9029 23.1344 53.5564 24.0127C55.81 26.4723 57.1386 29.6348 57.1386 33.5002C57.1386 47.0882 48.9929 50.0746 41.1929 50.9536C42.4643 52.0662 43.5614 54.1743 43.5614 57.5129C43.5614 62.2567 43.5043 66.0639 43.5043 67.2347C43.5043 68.172 44.14 69.2853 45.8729 68.9339C59.7386 64.2476 69.7336 51.0118 69.7336 35.3747C69.7907 15.8125 54.1343 0 34.8957 0Z" fill="white"/>
</g>
<defs>
<clipPath id="clip0_45_10">
<rect width="70" height="69" fill="white"/>
</clipPath>
</defs>
</svg>
