<svg width="506" height="503" viewBox="0 0 506 503" fill="none" xmlns="http://www.w3.org/2000/svg">
<g clip-path="url(#clip0_42_56)">
<path fill-rule="evenodd" clip-rule="evenodd" d="M143.875 320.25L143.625 253H106.125L106.375 320.25L125.125 346L143.875 320.25ZM106.375 435.5V503H143.875V435.5L125.125 409.75L106.375 435.5Z" fill="white"/>
<path fill-rule="evenodd" clip-rule="evenodd" d="M143.875 435.5L183.375 490L213.625 468L174.125 413.5L143.875 403.75V435.5ZM106.375 320.25L66.625 265.75L36.375 287.75L75.875 342.25L106.375 352V320.25Z" fill="#00F2E6"/>
<path fill-rule="evenodd" clip-rule="evenodd" d="M75.875 342.25L11.875 321.5L0.375 357L64.375 378L94.625 368L75.875 342.25ZM155.375 387.75L174.125 413.5L238.125 434.25L249.625 398.75L185.625 378L155.375 387.75Z" fill="#00B9F1"/>
<path fill-rule="evenodd" clip-rule="evenodd" d="M185.625 378L249.625 357L238.125 321.5L174.125 342.25L155.375 368L185.625 378ZM64.375 378L0.375 398.75L11.875 434.25L75.875 413.5L94.625 387.75L64.375 378Z" fill="#D63AFF"/>
<path fill-rule="evenodd" clip-rule="evenodd" d="M75.875 413.5L36.375 468L66.625 490L106.375 435.5V403.75L75.875 413.5ZM174.125 342.25L213.625 287.75L183.375 265.75L143.875 320.25V352L174.125 342.25Z" fill="#FB015B"/>
</g>
<path d="M375 490.5C437.132 490.5 487.5 440.132 487.5 378C487.5 315.868 437.132 265.5 375 265.5C312.868 265.5 262.5 315.868 262.5 378C262.5 440.132 312.868 490.5 375 490.5Z" fill="white" stroke="#3C790A" stroke-width="10"/>
<path d="M415.575 408.593H435.587V360.548L413.045 338.005L398.892 352.153L415.575 368.835V408.593ZM435.635 418.623H406.492H365.84L349.155 401.943L356.23 394.865L370.012 408.648H398.362L370.432 380.665L377.56 373.538L405.49 401.468V373.115L391.765 359.39L398.785 352.368L364.097 317.52H329.885H294.407L314.365 337.478V337.53H314.47H355.76L370.382 352.153L348.997 373.538L334.377 358.913V347.563H314.365V367.2L348.997 401.838L334.902 415.935L357.445 438.48H391.655H455.595L435.635 418.623Z" fill="#3C790A"/>
<g clip-path="url(#clip1_42_56)">
<path d="M124.5 237C188.289 237 240 185.289 240 121.5C240 57.7111 188.289 6 124.5 6C60.7111 6 9 57.7111 9 121.5C9 185.289 60.7111 237 124.5 237Z" fill="#0091E2"/>
<path d="M195.627 110.108C195.266 109.815 191.995 107.356 185.092 107.356C183.265 107.356 181.438 107.491 179.633 107.829C178.302 98.6481 170.723 94.1815 170.384 93.9785L168.534 92.8957L167.316 94.6553C165.782 97.0239 164.677 99.6182 164.023 102.37C162.782 107.604 163.526 112.522 166.188 116.718C162.985 118.5 157.819 118.951 156.781 118.973H71.4873C69.254 118.973 67.4493 120.778 67.4493 123.011C67.3591 130.478 68.6224 137.9 71.1715 144.916C74.1041 152.631 78.4805 158.293 84.1653 161.767C90.5268 165.67 100.881 167.903 112.634 167.903C117.935 167.926 123.237 167.429 128.448 166.459C135.689 165.128 142.66 162.602 149.066 158.97C154.345 155.902 159.105 152.022 163.143 147.442C169.888 139.795 173.926 131.268 176.926 123.711H178.122C185.521 123.711 190.078 120.756 192.582 118.274C194.251 116.695 195.56 114.778 196.394 112.634L196.913 111.078L195.627 110.108ZM79.3828 116.515H90.82C91.3614 116.515 91.8126 116.063 91.8126 115.522V105.348C91.8126 104.807 91.3614 104.355 90.82 104.333H79.3828C78.8414 104.333 78.3903 104.784 78.3903 105.325V115.522C78.3903 116.086 78.8414 116.515 79.3828 116.515ZM95.1513 116.515H106.588C107.13 116.515 107.581 116.063 107.581 115.522V105.348C107.581 104.807 107.13 104.355 106.588 104.333H95.1513C94.5873 104.333 94.1362 104.784 94.1362 105.348V115.522C94.1362 116.086 94.5873 116.515 95.1513 116.515ZM111.123 116.537H122.56C123.101 116.537 123.553 116.086 123.553 115.545V105.371C123.553 104.829 123.101 104.378 122.56 104.355H111.123C110.581 104.355 110.13 104.807 110.13 105.348V115.545C110.13 116.086 110.581 116.515 111.123 116.537ZM126.936 116.537H138.374C138.915 116.537 139.366 116.086 139.389 115.545V105.371C139.389 104.807 138.938 104.355 138.374 104.355H126.936C126.395 104.355 125.944 104.807 125.944 105.348V115.545C125.944 116.086 126.372 116.537 126.936 116.537ZM95.1287 101.874H106.566C107.107 101.874 107.559 101.423 107.559 100.859V90.685C107.559 90.1436 107.107 89.6924 106.566 89.6924H95.1287C94.5648 89.6924 94.1362 90.1436 94.1136 90.685V100.859C94.1362 101.423 94.5873 101.874 95.1287 101.874ZM111.123 101.874H122.56C123.101 101.874 123.553 101.423 123.553 100.859V90.685C123.553 90.1436 123.101 89.6924 122.56 89.6924H111.123C110.581 89.6924 110.13 90.1436 110.13 90.685V100.859C110.13 101.423 110.581 101.874 111.123 101.874ZM126.936 101.874H138.374C138.938 101.874 139.366 101.423 139.389 100.859V90.685C139.389 90.121 138.938 89.6924 138.374 89.6924H126.936C126.395 89.6924 125.944 90.1436 125.944 90.685V100.859C125.944 101.423 126.372 101.874 126.936 101.874ZM126.936 87.2335H138.374C138.938 87.2335 139.389 86.7823 139.389 86.2184V76.0219C139.389 75.4805 138.938 75.0293 138.374 75.0293H126.936C126.395 75.0293 125.944 75.4805 125.944 76.0219V86.2184C125.944 86.7823 126.372 87.2335 126.936 87.2335ZM142.863 116.537H154.3C154.841 116.537 155.293 116.086 155.293 115.545V105.371C155.293 104.807 154.841 104.378 154.3 104.355H142.863C142.321 104.355 141.87 104.807 141.87 105.348V115.545C141.87 116.086 142.321 116.537 142.863 116.537Z" fill="white"/>
</g>
<path d="M468.198 105.001C467.465 97.3178 465.59 89.9706 462.745 83.1262C451.287 55.5512 424.101 36.1567 392.379 36.1567C377.579 36.1567 363.768 40.379 352.082 47.6817C334.023 58.9678 321.037 77.6178 317.312 99.4234H308.626C278.559 99.4262 254.184 123.798 254.184 153.865C254.184 183.932 278.559 208.307 308.626 208.307H444.19C474.254 208.307 498.629 183.932 498.629 153.865C498.629 132.418 486.22 113.876 468.198 105.001Z" fill="#69E3FF"/>
<path d="M369.297 71.6345C372.16 70.4459 372.376 67.8093 372.376 67.0205C372.376 66.2425 372.16 63.5952 369.297 62.4065C367.859 61.8122 366.736 60.6885 366.141 59.2513C365.547 57.8142 365.547 56.2258 366.141 54.7886L369.945 45.6147C371.177 42.6432 374.591 41.2277 377.574 42.4595C380.437 43.6481 382.458 41.93 383.009 41.3789C383.56 40.8278 385.278 38.7964 384.089 35.9437C383.495 34.5066 383.495 32.9182 384.089 31.481C384.684 30.0439 385.808 28.9201 387.245 28.3258L396.419 24.5223C399.39 23.2904 402.805 24.706 404.047 27.6775C405.236 30.5302 407.872 30.7571 408.661 30.7571C409.439 30.7571 412.087 30.541 413.275 27.6775C413.87 26.2404 414.993 25.1166 416.43 24.5223C417.868 23.928 419.456 23.928 420.893 24.5223L430.067 28.3258C431.504 28.9201 432.628 30.0439 433.222 31.481C433.817 32.9182 433.817 34.5066 433.222 35.9437C432.034 38.8072 433.752 40.8278 434.303 41.3789C434.854 41.93 436.885 43.6481 439.738 42.4595C441.175 41.8652 442.764 41.8652 444.201 42.4595C445.638 43.0538 446.762 44.1776 447.356 45.6147L451.16 54.7886C451.754 56.2258 451.754 57.8142 451.16 59.2513C450.565 60.6885 449.441 61.8122 448.004 62.4065C445.152 63.5952 444.925 66.2317 444.925 67.0205C444.925 67.8093 445.152 70.4459 448.004 71.6345C450.976 72.8663 452.391 76.2917 451.16 79.2632L447.356 88.4371C446.762 89.8743 445.638 90.998 444.201 91.5923C442.764 92.1867 441.175 92.1867 439.738 91.5923C436.885 90.4145 434.854 92.1218 434.303 92.6729C433.752 93.224 432.034 95.2554 433.222 98.1081C434.454 101.08 433.039 104.505 430.067 105.737L420.893 109.54C420.169 109.843 419.413 109.983 418.656 109.983C417.9 109.983 417.144 109.832 416.42 109.54C414.983 108.946 413.859 107.822 413.264 106.385C412.076 103.522 409.439 103.306 408.65 103.306C407.872 103.306 405.225 103.522 404.036 106.385C402.805 109.357 399.379 110.772 396.408 109.54L387.234 105.737C384.262 104.505 382.847 101.08 384.079 98.1081C385.267 95.2446 383.549 93.224 382.998 92.6729C382.447 92.1218 380.426 90.4037 377.563 91.5923C374.591 92.8134 371.177 91.3978 369.945 88.4263L366.141 79.2524C364.91 76.2809 366.325 72.8663 369.297 71.6345ZM408.661 83.1316C417.543 83.1316 424.772 75.9027 424.772 67.0205C424.772 58.1384 417.543 50.9094 408.661 50.9094C399.779 50.9094 392.55 58.1384 392.55 67.0205C392.55 75.9027 399.779 83.1316 408.661 83.1316Z" fill="#F9F9F9"/>
<path d="M368.093 173.065H349.018C347.484 173.065 346.24 171.823 346.24 170.287V132.576C346.24 131.04 347.484 129.798 349.018 129.798H368.093C369.626 129.798 370.87 131.04 370.87 132.576C370.87 134.112 369.626 135.354 368.093 135.354H351.795V167.509H368.093C369.626 167.509 370.87 168.751 370.87 170.287C370.87 171.823 369.629 173.065 368.093 173.065Z" fill="black"/>
<path d="M362.309 154.209H349.018C347.484 154.209 346.24 152.968 346.24 151.432C346.24 149.895 347.484 148.654 349.018 148.654H362.309C363.843 148.654 365.087 149.895 365.087 151.432C365.087 152.968 363.845 154.209 362.309 154.209Z" fill="black"/>
<path d="M322.787 154.209H309.804C308.27 154.209 307.026 152.968 307.026 151.432V132.576C307.026 131.04 308.27 129.798 309.804 129.798H322.787C328.295 129.798 332.776 134.279 332.776 139.787V144.223C332.776 149.726 328.295 154.209 322.787 154.209ZM312.582 148.654H322.787C325.232 148.654 327.22 146.665 327.22 144.221V139.784C327.22 137.34 325.232 135.351 322.787 135.351H312.582V148.654Z" fill="black"/>
<path d="M329.998 173.065C328.465 173.065 327.22 171.823 327.22 170.287V158.643C327.22 156.198 325.232 154.209 322.787 154.209H312.582V170.287C312.582 171.823 311.337 173.065 309.804 173.065C308.27 173.065 307.026 171.823 307.026 170.287V151.432C307.026 149.895 308.27 148.654 309.804 148.654H322.787C328.295 148.654 332.776 153.134 332.776 158.643V170.287C332.776 171.823 331.532 173.065 329.998 173.065Z" fill="black"/>
<path d="M443.009 135.354H419.22C417.684 135.354 416.443 134.112 416.443 132.576C416.443 131.04 417.684 129.798 419.22 129.798H443.009C444.545 129.798 445.787 131.04 445.787 132.576C445.787 134.112 444.543 135.354 443.009 135.354Z" fill="black"/>
<path d="M431.112 173.065C429.576 173.065 428.334 171.823 428.334 170.287V132.576C428.334 131.04 429.576 129.798 431.112 129.798C432.648 129.798 433.89 131.04 433.89 132.576V170.287C433.89 171.823 432.648 173.065 431.112 173.065Z" fill="black"/>
<path d="M395.059 173.065H391.562C385.829 173.065 381.165 168.532 381.165 162.96C381.165 161.423 382.406 160.182 383.942 160.182C385.479 160.182 386.72 161.423 386.72 162.96C386.72 165.468 388.892 167.51 391.562 167.51H395.059C397.951 167.51 400.304 165.296 400.304 162.573V159.148C400.304 156.426 397.951 154.212 395.059 154.212H391.967C386.009 154.212 381.165 149.507 381.165 143.721V140.296C381.165 134.51 386.009 129.804 391.967 129.804H395.465C401.195 129.804 405.859 134.337 405.859 139.907C405.859 141.443 404.617 142.685 403.081 142.685C401.545 142.685 400.304 141.443 400.304 139.907C400.304 137.401 398.134 135.36 395.465 135.36H391.967C389.076 135.36 386.72 137.573 386.72 140.296V143.721C386.72 146.443 389.076 148.657 391.967 148.657H395.059C401.015 148.657 405.859 153.362 405.859 159.148V162.573C405.859 168.36 401.012 173.065 395.059 173.065Z" fill="black"/>
<path d="M356.237 231.99C354.704 231.99 353.459 230.748 353.459 229.212V199.632C353.459 196.679 351.056 194.276 348.106 194.276H340.962C338.009 194.276 335.609 196.679 335.609 199.632V229.21C335.609 230.746 334.365 231.987 332.831 231.987C331.298 231.987 330.054 230.746 330.054 229.21V199.632C330.054 193.615 334.948 188.721 340.962 188.721H348.106C354.123 188.721 359.015 193.615 359.015 199.632V229.21C359.015 230.746 357.77 231.99 356.237 231.99Z" fill="black"/>
<path d="M356.237 213.135H332.829C331.295 213.135 330.051 211.893 330.051 210.357C330.051 208.821 331.295 207.579 332.829 207.579H356.237C357.77 207.579 359.015 208.821 359.015 210.357C359.015 211.893 357.77 213.135 356.237 213.135Z" fill="black"/>
<path d="M415.27 231.99C413.734 231.99 412.493 230.748 412.493 229.212V191.501C412.493 189.965 413.734 188.723 415.27 188.723C416.807 188.723 418.048 189.965 418.048 191.501V229.212C418.048 230.746 416.807 231.99 415.27 231.99Z" fill="black"/>
<path d="M390.007 215.432H376.201C374.668 215.432 373.423 214.19 373.423 212.654V191.501C373.423 189.965 374.668 188.723 376.201 188.723H390.007C395.59 188.723 400.132 193.268 400.132 198.851V205.307C400.129 210.887 395.587 215.432 390.007 215.432ZM378.976 209.876H390.004C392.523 209.876 394.573 207.826 394.573 205.304V198.848C394.573 196.329 392.526 194.276 390.004 194.276H378.976V209.876Z" fill="black"/>
<path d="M376.198 231.99C374.665 231.99 373.42 230.748 373.42 229.212V212.654C373.42 211.118 374.665 209.876 376.198 209.876C377.731 209.876 378.976 211.118 378.976 212.654V229.212C378.976 230.746 377.734 231.99 376.198 231.99Z" fill="black"/>
<path d="M444.187 211.082C442.651 211.082 441.409 209.84 441.409 208.304C441.409 206.768 442.651 205.526 444.187 205.526C472.673 205.526 495.851 182.354 495.851 153.868C495.851 134.035 484.787 116.265 466.973 107.496C466.106 107.071 465.526 106.226 465.434 105.268C464.737 98.0012 462.97 90.9123 460.179 84.1929C459.59 82.7762 460.262 81.1512 461.679 80.5623C463.104 79.9734 464.723 80.6457 465.312 82.0623C468.118 88.8207 469.962 95.9262 470.804 103.212C489.72 113.148 501.406 132.415 501.406 153.865C501.406 185.415 475.74 211.082 444.187 211.082Z" fill="black"/>
<path d="M308.626 211.082C277.076 211.082 251.406 185.415 251.406 153.868C251.406 122.318 277.076 96.6485 308.626 96.6485H315.004C319.279 75.4679 332.154 56.8624 350.609 45.329C351.909 44.5179 353.623 44.9151 354.437 46.2124C355.248 47.5124 354.854 49.2263 353.554 50.0401C335.776 61.1513 323.565 79.3235 320.051 99.8929C319.823 101.226 318.665 102.204 317.312 102.204H308.626C280.137 102.204 256.962 125.379 256.962 153.865C256.962 182.351 280.137 205.529 308.626 205.529C310.159 205.529 311.404 206.771 311.404 208.307C311.404 209.843 310.159 211.082 308.626 211.082Z" fill="black"/>
<path d="M418.656 112.76C417.522 112.76 416.409 112.534 415.361 112.101C413.232 111.226 411.579 109.562 410.703 107.444C410.239 106.31 409.331 106.072 408.661 106.072C407.98 106.072 407.084 106.31 406.619 107.444C404.804 111.82 399.757 113.917 395.37 112.101L386.186 108.298C381.799 106.482 379.713 101.425 381.528 97.0491C382.026 95.8605 381.442 95.0285 381.053 94.6395C380.567 94.1533 379.756 93.6886 378.633 94.1533C374.246 95.9578 369.199 93.8723 367.373 89.4961L363.57 80.3221C361.754 75.9351 363.84 70.8889 368.227 69.0736C369.361 68.6089 369.599 67.7013 369.599 67.0313C369.599 66.3506 369.361 65.4537 368.238 64.9891C366.109 64.1138 364.456 62.4498 363.58 60.3319C362.694 58.2032 362.694 55.8692 363.58 53.7405L367.384 44.5666C369.21 40.1795 374.256 38.094 378.643 39.9094C379.778 40.374 380.578 39.9094 381.053 39.4339C381.539 38.9477 382.004 38.1481 381.539 37.0135C380.664 34.8848 380.664 32.5508 381.539 30.4221C382.425 28.2934 384.079 26.6401 386.196 25.7649L395.37 21.9613C399.757 20.146 404.804 22.2423 406.63 26.6185C407.094 27.7423 408.002 27.98 408.672 27.98C409.353 27.98 410.25 27.7423 410.714 26.6185C411.6 24.4898 413.254 22.8366 415.382 21.9505C417.511 21.0645 419.845 21.0753 421.974 21.9505L431.148 25.7541C433.276 26.6401 434.93 28.2934 435.816 30.4113C436.702 32.54 436.702 34.8848 435.816 37.0027C435.351 38.1264 435.816 38.9369 436.291 39.4123C436.777 39.8986 437.577 40.3632 438.701 39.8986C440.829 39.0233 443.174 39.0233 445.292 39.8986C447.421 40.7846 449.074 42.4379 449.96 44.5666L453.753 53.7405C454.639 55.8692 454.639 58.2032 453.753 60.3319C452.867 62.4606 451.214 64.1138 449.085 64.9999C447.961 65.4645 447.723 66.3722 447.723 67.0421C447.723 67.7121 447.961 68.6197 449.096 69.0844C451.224 69.9596 452.878 71.6237 453.753 73.7524C454.639 75.8811 454.639 78.2151 453.753 80.3438L449.949 89.5177C449.074 91.6464 447.421 93.2996 445.292 94.1749C443.163 95.0501 440.819 95.0501 438.701 94.1749C437.566 93.6994 436.766 94.1749 436.291 94.6503C435.816 95.1258 435.34 95.9362 435.816 97.06C437.631 101.447 435.545 106.493 431.158 108.309L421.984 112.112C420.904 112.544 419.791 112.76 418.656 112.76ZM408.661 100.518C411.168 100.518 414.377 101.782 415.836 105.315C416.149 106.072 416.733 106.655 417.489 106.969C418.246 107.282 419.078 107.282 419.834 106.969L429.008 103.165C430.564 102.517 431.31 100.723 430.661 99.167C429.192 95.6228 430.575 92.4676 432.347 90.6955C434.119 88.9234 437.274 87.5511 440.808 89.0098C441.575 89.3232 442.385 89.3232 443.153 89.0098C443.909 88.6965 444.492 88.1129 444.806 87.3566L448.609 78.1826C448.923 77.4263 448.923 76.605 448.609 75.8486C448.296 75.0923 447.713 74.5088 446.956 74.1954C443.423 72.7258 442.158 69.5274 442.158 67.0205C442.158 64.5136 443.412 61.3044 446.956 59.8456C447.713 59.5323 448.296 58.9488 448.609 58.1924C448.923 57.436 448.923 56.604 448.609 55.8476L444.806 46.6736C444.492 45.9173 443.909 45.3338 443.153 45.0204C442.396 44.707 441.564 44.707 440.808 45.0204C437.285 46.4899 434.119 45.1176 432.336 43.3347C430.564 41.5734 429.192 38.4074 430.661 34.874C430.975 34.1176 430.975 33.2856 430.661 32.5292C430.348 31.7728 429.764 31.1893 429.008 30.8759L419.834 27.0724C419.067 26.759 418.257 26.759 417.489 27.0724C416.733 27.3857 416.139 27.9692 415.836 28.7256C414.377 32.259 411.168 33.5233 408.661 33.5233C406.154 33.5233 402.945 32.2698 401.486 28.7364C400.838 27.1804 399.044 26.4348 397.488 27.0832L388.314 30.8759C387.558 31.1893 386.974 31.7728 386.661 32.5292C386.348 33.2856 386.348 34.1176 386.661 34.874C388.131 38.4182 386.748 41.5734 384.965 43.3455C383.203 45.1176 380.048 46.4899 376.504 45.0204C374.948 44.3721 373.154 45.1176 372.506 46.6736L368.702 55.8476C368.389 56.604 368.389 57.436 368.702 58.1816C369.016 58.9379 369.599 59.5323 370.356 59.8348C373.9 61.3044 375.153 64.5028 375.153 67.0205C375.153 69.5274 373.889 72.7258 370.356 74.1954C368.8 74.8437 368.054 76.6375 368.702 78.1935L372.506 87.3674C373.154 88.9234 374.959 89.6689 376.504 89.0206C380.037 87.5619 383.193 88.9342 384.965 90.7063C386.737 92.4676 388.12 95.6228 386.65 99.167C386.002 100.723 386.748 102.517 388.304 103.165L397.477 106.969C399.033 107.617 400.827 106.871 401.476 105.315C402.945 101.782 406.144 100.518 408.661 100.518ZM408.661 85.9086C398.245 85.9086 389.773 77.4371 389.773 67.0205C389.773 56.604 398.245 48.1324 408.661 48.1324C419.078 48.1324 427.549 56.604 427.549 67.0205C427.549 77.4371 419.078 85.9086 408.661 85.9086ZM408.661 53.6864C401.303 53.6864 395.327 59.6727 395.327 67.0205C395.327 74.3683 401.313 80.3546 408.661 80.3546C416.009 80.3546 421.995 74.3683 421.995 67.0205C421.995 59.6727 416.009 53.6864 408.661 53.6864Z" fill="black"/>
<defs>
<clipPath id="clip0_42_56">
<rect width="250" height="250" fill="white" transform="translate(0 253)"/>
</clipPath>
<clipPath id="clip1_42_56">
<rect width="231" height="231" fill="white" transform="translate(9 6)"/>
</clipPath>
</defs>
</svg>
