<svg width="715" height="467" viewBox="0 0 715 467" fill="none" xmlns="http://www.w3.org/2000/svg">
<path d="M216 215.418L196.322 436.67L107.868 461.282L19.6573 436.704L0 215.418H216Z" fill="#264DE4"/>
<path d="M179.475 422.581L196.291 233.511H108V442.469L179.475 422.581Z" fill="#2965F1"/>
<path d="M45.064 315.583L47.4876 342.723H108V315.583H45.064Z" fill="#EBEBEB"/>
<path d="M108 260.652H107.907H40.1942L42.6523 287.792H108V260.652Z" fill="#EBEBEB"/>
<path d="M108 414.305V386.069L107.881 386.1L77.7658 377.939L75.8406 356.293H61.2067H48.6957L52.4842 398.907L107.875 414.34L108 414.305Z" fill="#EBEBEB"/>
<path d="M141.204 342.723L138.066 377.921L107.906 386.091V414.327L163.342 398.907L163.749 394.322L170.103 322.871L170.763 315.583L175.644 260.652H107.906V287.792H146.01L143.549 315.583H107.906V342.723H141.204Z" fill="white"/>
<path d="M264.146 441.623L244 215.418H465.488L445.342 441.501L354.561 466.662" fill="#E44D26"/>
<path d="M354.744 447.425V233.983H445.281L428.004 426.966" fill="#F16529"/>
<path d="M285.147 261.648H354.744V289.374H315.55L318.114 317.772H354.744V345.437H292.718M293.939 359.361H321.777L323.731 381.53L354.744 389.835V418.783L297.846 402.905" fill="#EBEBEB"/>
<path d="M424.097 261.648H354.622V289.374H421.533M419.03 317.772H354.622V345.498H388.81L385.574 381.53L354.622 389.835V418.661L411.398 402.905" fill="white"/>
<path d="M603.368 230.418C551.075 230.418 550.513 250.717 550.513 254.895C550.513 261.233 550.513 280.253 550.513 280.253H604.375V287.866C604.375 287.866 548.294 287.866 529.119 287.866C513.113 287.866 493 297.598 493 340.722C493 380.335 508.69 395.654 524.524 395.654C529.226 395.654 543.339 395.654 543.339 395.654C543.339 395.654 543.339 375.991 543.339 369.226C543.339 358.169 548.817 337.702 574.359 337.702C606.395 337.702 614.572 337.702 627.781 337.702C635.638 337.702 657.795 334.287 657.795 308.695C657.795 281.608 657.795 272.672 657.795 259.929C657.797 253.58 656.711 230.418 603.368 230.418ZM573.669 247.471C579.029 247.471 583.36 251.8 583.36 257.162C583.36 262.52 579.029 266.853 573.669 266.853C568.309 266.853 563.977 262.522 563.977 257.162C563.977 251.8 568.309 247.471 573.669 247.471Z" fill="url(#paint0_linear_28_57)"/>
<path d="M604.122 451.908C656.391 451.908 657.042 431.227 657.042 427.431C657.042 421.093 657.042 402.073 657.042 402.073H603.115V394.46C603.115 394.46 659.558 394.46 678.371 394.46C694.497 394.46 714.49 384.484 714.49 341.604C714.49 294.644 693.271 286.672 682.966 286.672C678.262 286.672 664.151 286.672 664.151 286.672C664.151 286.672 664.151 307.243 664.151 313.1C664.151 324.157 658.854 344.624 633.131 344.624C601.095 344.624 593.915 344.624 579.707 344.624C571.871 344.624 549.693 348.442 549.693 373.631C549.693 402.777 549.693 410.409 549.693 422.397C549.693 432.928 556.129 451.908 604.122 451.908ZM633.823 434.855C628.463 434.855 624.132 430.524 624.132 425.164C624.132 419.804 628.461 415.473 633.823 415.473C639.181 415.473 643.515 419.804 643.515 425.164C643.515 430.524 639.181 434.855 633.823 434.855Z" fill="url(#paint1_linear_28_57)"/>
<path d="M465 173.416C465 187.681 453.436 199.245 439.171 199.245H25.8287C11.5639 199.245 0 187.681 0 173.416V25.8287C0 11.5639 11.5639 0 25.8287 0H439.171C453.436 0 465 11.5639 465 25.8287V173.416Z" fill="#092E20"/>
<path d="M80.2028 31.2888H102.224V133.216C90.9273 135.361 82.6335 136.219 73.6257 136.219C46.7435 136.219 32.7305 124.066 32.7305 100.757C32.7305 78.3081 47.6023 63.7232 70.6231 63.7232C74.1976 63.7232 76.9143 64.0101 80.2037 64.8661L80.2028 31.2888ZM80.2028 82.5957C77.6292 81.7387 75.4845 81.4527 72.7678 81.4527C61.6144 81.4527 55.1794 88.3167 55.1794 100.326C55.1794 112.053 61.3285 118.487 72.6248 118.487C75.0546 118.487 77.0572 118.344 80.2028 117.917V82.5957Z" fill="white"/>
<path d="M137.255 65.294V116.344C137.255 133.93 135.968 142.366 132.108 149.66C128.532 156.667 123.813 161.097 114.09 165.96L93.6421 156.236C103.366 151.661 108.084 147.66 111.087 141.508C114.233 135.218 115.235 127.923 115.235 108.763V65.294H137.255ZM115.235 31.4058H137.255V53.9995H115.235V31.4058Z" fill="white"/>
<path d="M150.556 70.2993C160.28 65.723 169.574 63.7222 179.726 63.7222C191.023 63.7222 198.458 66.7248 201.747 72.5879C203.605 75.8755 204.177 80.1649 204.177 89.3185V134.073C194.31 135.505 181.87 136.505 172.719 136.505C154.274 136.505 145.979 130.069 145.979 115.772C145.979 100.326 156.99 93.178 184.016 90.8885V86.0262C184.016 82.0237 182.014 80.5948 176.437 80.5948C168.287 80.5948 159.135 82.8816 150.555 87.3149V70.2993H150.556ZM185.017 105.332C170.431 106.764 165.713 109.051 165.713 114.77C165.713 119.059 168.43 121.062 174.435 121.062C177.725 121.062 180.726 120.775 185.017 120.062V105.332Z" fill="white"/>
<path d="M214.902 68.7274C227.914 65.2941 238.638 63.7222 249.505 63.7222C260.802 63.7222 268.953 66.294 273.816 71.3011C278.391 76.0176 279.82 81.1649 279.82 92.1781V135.361H257.8V93.035C257.8 84.5992 254.941 81.4518 247.077 81.4518C244.074 81.4518 241.357 81.7386 236.923 83.0255V135.36H214.903L214.902 68.7274Z" fill="white"/>
<path d="M288.38 147.372C296.103 151.375 303.824 153.233 311.974 153.233C326.415 153.233 332.564 147.372 332.564 133.358C332.564 133.216 332.564 133.072 332.564 132.927C328.275 135.073 323.984 135.932 318.266 135.932C298.962 135.932 286.663 123.205 286.663 103.045C286.663 78.0202 304.824 63.8652 336.996 63.8652C346.434 63.8652 355.157 64.8651 365.738 67.008L358.198 82.8945C352.335 81.7497 357.729 82.7404 353.298 82.3115V84.5992L353.583 93.892L353.725 105.904C353.868 108.905 353.868 111.909 354.012 114.911C354.012 117.628 354.012 118.916 354.012 120.918C354.012 139.793 352.439 148.659 347.721 155.95C340.857 166.675 328.989 171.966 312.116 171.966C303.536 171.966 296.102 170.678 288.38 167.675L288.38 147.372ZM332.136 81.5957C331.85 81.5957 331.565 81.5957 331.422 81.5957H329.848C325.56 81.4527 320.556 82.5956 317.122 84.7403C311.833 87.7447 309.114 93.1771 309.114 100.9C309.114 111.911 314.55 118.201 324.272 118.201C327.275 118.201 329.706 117.63 332.565 116.772V115.199V109.194C332.565 106.62 332.423 103.759 332.423 100.757L332.281 90.6044L332.137 83.3124V81.5957H332.136Z" fill="white"/>
<path d="M399.924 63.4372C421.944 63.4372 435.386 77.3082 435.386 99.7552C435.386 122.777 421.373 137.219 399.066 137.219C377.044 137.219 363.46 123.349 363.46 101.044C363.461 77.8773 377.475 63.4372 399.924 63.4372ZM399.493 119.488C407.931 119.488 412.936 112.481 412.936 100.326C412.936 88.3167 408.074 81.1659 399.639 81.1659C390.915 81.1659 385.909 88.1747 385.909 100.326C385.91 112.482 390.915 119.488 399.493 119.488Z" fill="white"/>
<g clip-path="url(#clip0_28_57)">
<path d="M692 0.417969H493V199.418H692V0.417969Z" fill="#F7DF1E"/>
<path d="M626.677 155.888C630.686 162.432 635.901 167.243 645.124 167.243C652.873 167.243 657.822 163.371 657.822 158.02C657.822 151.607 652.737 149.336 644.208 145.606L639.533 143.6C626.039 137.851 617.075 130.649 617.075 115.424C617.075 101.399 627.761 90.7229 644.461 90.7229C656.351 90.7229 664.898 94.8608 671.058 105.695L656.496 115.045C653.29 109.296 649.831 107.031 644.461 107.031C638.984 107.031 635.512 110.506 635.512 115.045C635.512 120.655 638.987 122.926 647.01 126.401L651.685 128.403C667.573 135.217 676.544 142.163 676.544 157.78C676.544 174.616 663.319 183.839 645.557 183.839C628.19 183.839 616.971 175.563 611.481 164.716L626.677 155.888ZM560.619 157.508C563.557 162.72 566.229 167.126 572.654 167.126C578.797 167.126 582.673 164.722 582.673 155.376V91.7905H601.373V155.628C601.373 174.992 590.02 183.804 573.45 183.804C558.477 183.804 549.807 176.056 545.397 166.724L560.619 157.508Z" fill="black"/>
</g>
<defs>
<linearGradient id="paint0_linear_28_57" x1="513.757" y1="250.203" x2="623.852" y2="360.667" gradientUnits="userSpaceOnUse">
<stop stop-color="#387EB8"/>
<stop offset="1" stop-color="#366994"/>
</linearGradient>
<linearGradient id="paint1_linear_28_57" x1="580.664" y1="320.78" x2="698.702" y2="433.866" gradientUnits="userSpaceOnUse">
<stop stop-color="#FFE052"/>
<stop offset="1" stop-color="#FFC331"/>
</linearGradient>
<clipPath id="clip0_28_57">
<rect width="199" height="199" fill="white" transform="translate(493 0.417969)"/>
</clipPath>
</defs>
</svg>
