<svg width="130" height="130" viewBox="0 0 130 130" fill="none" xmlns="http://www.w3.org/2000/svg">
<circle cx="65" cy="65" r="60" stroke="#3D3636" stroke-width="10" stroke-linejoin="round"/>
<mask id="path-2-outside-1_9_76" maskUnits="userSpaceOnUse" x="2" y="22" width="113" height="84" fill="black">
<rect fill="white" x="2" y="22" width="113" height="84"/>
<path d="M49.85 24.075L72.735 90.43C75.955 91.58 78.2167 92.9217 79.52 94.455L78.37 104H51.46L50.31 94.455C51.23 93.2283 53.07 92.0783 55.83 91.005L52.725 81.345H29.725L26.85 90.66C29.5333 91.7333 31.5267 92.9983 32.83 94.455L31.68 104H5.46L4.31 94.455C5.69 92.6917 8.25833 91.235 12.015 90.085L34.095 24.075H49.85ZM40.305 40.175C40.305 44.8517 39.3467 50.295 37.43 56.505L32.945 70.765H49.39L45.02 56.735C43.2567 51.3683 42.26 46.5 42.03 42.13L41.915 40.175H40.305ZM110.861 24.65L112.011 34.195C110.784 35.6517 108.676 36.955 105.686 38.105V90.66C108.753 91.8867 110.861 93.1517 112.011 94.455L110.861 104H83.9511L82.8011 94.455C83.7978 93.1517 85.9061 91.8867 89.1261 90.66V38.105C85.9828 36.955 83.8744 35.6517 82.8011 34.195L83.9511 24.65H110.861Z"/>
</mask>
<path d="M49.85 24.075L72.735 90.43C75.955 91.58 78.2167 92.9217 79.52 94.455L78.37 104H51.46L50.31 94.455C51.23 93.2283 53.07 92.0783 55.83 91.005L52.725 81.345H29.725L26.85 90.66C29.5333 91.7333 31.5267 92.9983 32.83 94.455L31.68 104H5.46L4.31 94.455C5.69 92.6917 8.25833 91.235 12.015 90.085L34.095 24.075H49.85ZM40.305 40.175C40.305 44.8517 39.3467 50.295 37.43 56.505L32.945 70.765H49.39L45.02 56.735C43.2567 51.3683 42.26 46.5 42.03 42.13L41.915 40.175H40.305ZM110.861 24.65L112.011 34.195C110.784 35.6517 108.676 36.955 105.686 38.105V90.66C108.753 91.8867 110.861 93.1517 112.011 94.455L110.861 104H83.9511L82.8011 94.455C83.7978 93.1517 85.9061 91.8867 89.1261 90.66V38.105C85.9828 36.955 83.8744 35.6517 82.8011 34.195L83.9511 24.65H110.861Z" fill="#3D3636"/>
<path d="M49.85 24.075L51.7407 23.4229L51.2758 22.075H49.85V24.075ZM72.735 90.43L70.8443 91.0821L71.1575 91.9903L72.0623 92.3135L72.735 90.43ZM79.52 94.455L81.5056 94.6942L81.6102 93.826L81.0439 93.1597L79.52 94.455ZM78.37 104V106H80.1435L80.3556 104.239L78.37 104ZM51.46 104L49.4744 104.239L49.6865 106H51.46V104ZM50.31 94.455L48.71 93.255L48.2283 93.8972L48.3244 94.6942L50.31 94.455ZM55.83 91.005L56.5549 92.869L58.3105 92.1863L57.7341 90.393L55.83 91.005ZM52.725 81.345L54.6291 80.733L54.1829 79.345H52.725V81.345ZM29.725 81.345V79.345H28.2492L27.814 80.7552L29.725 81.345ZM26.85 90.66L24.939 90.0702L24.3951 91.8321L26.1072 92.517L26.85 90.66ZM32.83 94.455L34.8156 94.6942L34.9239 93.7958L34.3205 93.1214L32.83 94.455ZM31.68 104V106H33.4535L33.6656 104.239L31.68 104ZM5.46 104L3.47436 104.239L3.6865 106H5.46V104ZM4.31 94.455L2.73499 93.2224L2.22547 93.8734L2.32436 94.6942L4.31 94.455ZM12.015 90.085L12.6004 91.9974L13.5851 91.696L13.9117 90.7194L12.015 90.085ZM34.095 24.075V22.075H32.6551L32.1983 23.4406L34.095 24.075ZM40.305 40.175V38.175H38.305V40.175H40.305ZM37.43 56.505L39.3379 57.1051L39.341 57.0948L37.43 56.505ZM32.945 70.765L31.0371 70.1649L30.2194 72.765H32.945V70.765ZM49.39 70.765V72.765H52.1077L51.2995 70.1702L49.39 70.765ZM45.02 56.735L46.9295 56.1402L46.9249 56.1254L46.9201 56.1107L45.02 56.735ZM42.03 42.13L44.0273 42.0249L44.0266 42.0125L42.03 42.13ZM41.915 40.175L43.9115 40.0576L43.8008 38.175H41.915V40.175ZM49.85 24.075L47.9593 24.7271L70.8443 91.0821L72.735 90.43L74.6257 89.7779L51.7407 23.4229L49.85 24.075ZM72.735 90.43L72.0623 92.3135C75.1551 93.418 77.0277 94.611 77.9961 95.7503L79.52 94.455L81.0439 93.1597C79.4056 91.2323 76.755 89.742 73.4077 88.5465L72.735 90.43ZM79.52 94.455L77.5344 94.2158L76.3844 103.761L78.37 104L80.3556 104.239L81.5056 94.6942L79.52 94.455ZM78.37 104V102H51.46V104V106H78.37V104ZM51.46 104L53.4456 103.761L52.2956 94.2158L50.31 94.455L48.3244 94.6942L49.4744 104.239L51.46 104ZM50.31 94.455L51.91 95.655C52.4795 94.8957 53.8722 93.9123 56.5549 92.869L55.83 91.005L55.1051 89.141C52.2678 90.2444 49.9805 91.5609 48.71 93.255L50.31 94.455ZM55.83 91.005L57.7341 90.393L54.6291 80.733L52.725 81.345L50.8209 81.957L53.9259 91.617L55.83 91.005ZM52.725 81.345V79.345H29.725V81.345V83.345H52.725V81.345ZM29.725 81.345L27.814 80.7552L24.939 90.0702L26.85 90.66L28.761 91.2498L31.636 81.9348L29.725 81.345ZM26.85 90.66L26.1072 92.517C28.6304 93.5262 30.3163 94.645 31.3395 95.7886L32.83 94.455L34.3205 93.1214C32.737 91.3516 30.4363 89.9405 27.5928 88.803L26.85 90.66ZM32.83 94.455L30.8444 94.2158L29.6944 103.761L31.68 104L33.6656 104.239L34.8156 94.6942L32.83 94.455ZM31.68 104V102H5.46V104V106H31.68V104ZM5.46 104L7.44564 103.761L6.29564 94.2158L4.31 94.455L2.32436 94.6942L3.47436 104.239L5.46 104ZM4.31 94.455L5.88501 95.6876C6.88482 94.4101 8.97452 93.1074 12.6004 91.9974L12.015 90.085L11.4296 88.1726C7.54215 89.3626 4.49518 90.9733 2.73499 93.2224L4.31 94.455ZM12.015 90.085L13.9117 90.7194L35.9917 24.7094L34.095 24.075L32.1983 23.4406L10.1183 89.4506L12.015 90.085ZM34.095 24.075V26.075H49.85V24.075V22.075H34.095V24.075ZM40.305 40.175H38.305C38.305 44.5908 37.3978 49.8277 35.519 55.9152L37.43 56.505L39.341 57.0948C41.2955 50.7623 42.305 45.1125 42.305 40.175H40.305ZM37.43 56.505L35.5221 55.9049L31.0371 70.1649L32.945 70.765L34.8529 71.3651L39.3379 57.1051L37.43 56.505ZM32.945 70.765V72.765H49.39V70.765V68.765H32.945V70.765ZM49.39 70.765L51.2995 70.1702L46.9295 56.1402L45.02 56.735L43.1105 57.3298L47.4805 71.3598L49.39 70.765ZM45.02 56.735L46.9201 56.1107C45.1968 50.8661 44.2457 46.1757 44.0272 42.0249L42.03 42.13L40.0328 42.2351C40.2743 46.8243 41.3165 51.8706 43.1199 57.3593L45.02 56.735ZM42.03 42.13L44.0266 42.0125L43.9115 40.0576L41.915 40.175L39.9185 40.2924L40.0335 42.2474L42.03 42.13ZM41.915 40.175V38.175H40.305V40.175V42.175H41.915V40.175ZM110.861 24.65L112.847 24.4108L112.635 22.65H110.861V24.65ZM112.011 34.195L113.541 35.4833L114.101 34.8185L113.997 33.9558L112.011 34.195ZM105.686 38.105L104.968 36.2383L103.686 36.7314V38.105H105.686ZM105.686 90.66H103.686V92.0141L104.943 92.517L105.686 90.66ZM112.011 94.455L113.997 94.6942L114.104 93.8041L113.511 93.1318L112.011 94.455ZM110.861 104V106H112.635L112.847 104.239L110.861 104ZM83.9511 104L81.9655 104.239L82.1776 106H83.9511V104ZM82.8011 94.455L81.2124 93.2401L80.7181 93.8864L80.8155 94.6942L82.8011 94.455ZM89.1261 90.66L89.8381 92.529L91.1261 92.0383V90.66H89.1261ZM89.1261 38.105H91.1261V36.7071L89.8133 36.2268L89.1261 38.105ZM82.8011 34.195L80.8155 33.9558L80.7206 34.743L81.191 35.3814L82.8011 34.195ZM83.9511 24.65V22.65H82.1776L81.9655 24.4108L83.9511 24.65ZM110.861 24.65L108.875 24.8892L110.025 34.4342L112.011 34.195L113.997 33.9558L112.847 24.4108L110.861 24.65ZM112.011 34.195L110.481 32.9067C109.573 33.9851 107.832 35.1367 104.968 36.2383L105.686 38.105L106.404 39.9717C109.52 38.7733 111.996 37.3183 113.541 35.4833L112.011 34.195ZM105.686 38.105H103.686V90.66H105.686H107.686V38.105H105.686ZM105.686 90.66L104.943 92.517C107.936 93.714 109.681 94.8375 110.511 95.7782L112.011 94.455L113.511 93.1318C112.041 91.4658 109.57 90.0593 106.429 88.803L105.686 90.66ZM112.011 94.455L110.025 94.2158L108.875 103.761L110.861 104L112.847 104.239L113.997 94.6942L112.011 94.455ZM110.861 104V102H83.9511V104V106H110.861V104ZM83.9511 104L85.9367 103.761L84.7867 94.2158L82.8011 94.455L80.8155 94.6942L81.9655 104.239L83.9511 104ZM82.8011 94.455L84.3898 95.6699C85.0216 94.8438 86.6594 93.7399 89.8381 92.529L89.1261 90.66L88.4141 88.791C85.1528 90.0334 82.574 91.4596 81.2124 93.2401L82.8011 94.455ZM89.1261 90.66H91.1261V38.105H89.1261H87.1261V90.66H89.1261ZM89.1261 38.105L89.8133 36.2268C86.7701 35.1134 85.1257 33.9783 84.4112 33.0086L82.8011 34.195L81.191 35.3814C82.6231 37.325 85.1954 38.7966 88.4389 39.9832L89.1261 38.105ZM82.8011 34.195L84.7867 34.4342L85.9367 24.8892L83.9511 24.65L81.9655 24.4108L80.8155 33.9558L82.8011 34.195ZM83.9511 24.65V26.65H110.861V24.65V22.65H83.9511V24.65Z" fill="#160B0B" mask="url(#path-2-outside-1_9_76)"/>
<line y1="-7.5" x2="125.852" y2="-7.5" transform="matrix(0.768263 0.640134 -0.686378 0.727245 11 27)" stroke="#160B0B" stroke-width="15"/>
<line y1="-5" x2="125.852" y2="-5" transform="matrix(0.768263 0.640134 -0.686378 0.727245 14.3127 26.4377)" stroke="#3D3636" stroke-width="10"/>
<mask id="mask0_9_76" style="mask-type:alpha" maskUnits="userSpaceOnUse" x="2" y="5" width="119" height="107">
<line x1="9.19046" y1="13.6755" x2="112.878" y2="103.238" stroke="#160B0B" stroke-width="22"/>
</mask>
<g mask="url(#mask0_9_76)">
<circle cx="65" cy="65" r="60" stroke="#3D3636" stroke-width="10" stroke-linejoin="round"/>
</g>
</svg>
