<svg width="245" height="245" viewBox="0 0 245 245" fill="none" xmlns="http://www.w3.org/2000/svg">
<path d="M122.078 0C64.2363 0 63.6149 22.4522 63.6149 27.0736C63.6149 34.0847 63.6149 55.1227 63.6149 55.1227H123.192V63.5436C123.192 63.5436 61.1605 63.5436 39.9511 63.5436C22.2473 63.5436 0 74.3076 0 122.007C0 165.822 17.3542 182.767 34.8687 182.767C40.0692 182.767 55.6794 182.767 55.6794 182.767C55.6794 182.767 55.6794 161.018 55.6794 153.535C55.6794 141.306 61.7396 118.666 89.9914 118.666C125.426 118.666 134.47 118.666 149.081 118.666C157.771 118.666 182.279 114.889 182.279 86.5816C182.279 56.6216 182.279 46.7374 182.279 32.6415C182.281 25.6192 181.081 0 122.078 0ZM89.2274 18.862C95.1562 18.862 99.9468 23.6504 99.9468 29.5814C99.9468 35.5079 95.1562 40.3008 89.2274 40.3008C83.2987 40.3008 78.508 35.5101 78.508 29.5814C78.508 23.6504 83.2987 18.862 89.2274 18.862Z" fill="url(#paint0_linear_42_2)"/>
<path d="M122.911 244.99C180.726 244.99 181.446 222.114 181.446 217.916C181.446 210.905 181.446 189.867 181.446 189.867H121.798V181.446C121.798 181.446 184.23 181.446 205.038 181.446C222.876 181.446 244.989 170.413 244.989 122.983C244.989 71.0403 221.519 62.2229 210.121 62.2229C204.918 62.2229 189.31 62.2229 189.31 62.2229C189.31 62.2229 189.31 84.9758 189.31 91.4546C189.31 103.684 183.45 126.323 154.998 126.323C119.564 126.323 111.622 126.323 95.9066 126.323C87.2385 126.323 62.7083 130.546 62.7083 158.408C62.7083 190.646 62.7083 199.088 62.7083 212.348C62.7083 223.996 69.8264 244.99 122.911 244.99ZM155.764 226.128C149.836 226.128 145.045 221.337 145.045 215.408C145.045 209.48 149.833 204.689 155.764 204.689C161.691 204.689 166.484 209.48 166.484 215.408C166.484 221.337 161.691 226.128 155.764 226.128Z" fill="url(#paint1_linear_42_2)"/>
<defs>
<linearGradient id="paint0_linear_42_2" x1="22.9589" y1="21.8847" x2="144.735" y2="144.069" gradientUnits="userSpaceOnUse">
<stop stop-color="#387EB8"/>
<stop offset="1" stop-color="#366994"/>
</linearGradient>
<linearGradient id="paint1_linear_42_2" x1="96.9645" y1="99.9491" x2="227.526" y2="225.034" gradientUnits="userSpaceOnUse">
<stop stop-color="#FFE052"/>
<stop offset="1" stop-color="#FFC331"/>
</linearGradient>
</defs>
</svg>
